<?xml version="1.0" standalone="no"?>
<!DOCTYPE svg PUBLIC "-//W3C//DTD SVG 20010904//EN"
 "http://www.w3.org/TR/2001/REC-SVG-20010904/DTD/svg10.dtd">
<svg version="1.0" xmlns="http://www.w3.org/2000/svg"
 width="1200.000000pt" height="576.000000pt" viewBox="0 0 1200.000000 576.000000"
 preserveAspectRatio="xMidYMid meet">

<g transform="translate(0.000000,576.000000) scale(0.100000,-0.100000)"
fill="#ffffff" stroke="none">
<path d="M3970 5753 c-21 -9 -36 -29 -75 -105 -19 -37 -59 -104 -88 -150 -54
-82 -247 -455 -247 -475 0 -31 -61 -185 -121 -306 -63 -124 -69 -141 -63 -180
4 -23 17 -53 29 -67 40 -44 87 -129 83 -151 -3 -20 -6 -20 -48 16 -25 21 -55
42 -67 48 -13 6 -23 14 -23 19 0 4 -8 8 -18 8 -20 0 -48 -39 -35 -49 4 -4 31
-25 58 -46 66 -52 135 -121 135 -134 0 -21 -26 -10 -80 34 -55 46 -88 61 -112
52 -7 -2 11 -19 41 -38 29 -18 48 -35 43 -37 -14 -4 -263 46 -284 58 -10 5
-38 7 -62 4 -54 -8 -108 11 -104 35 2 8 21 22 43 30 22 8 56 21 75 29 35 14
35 15 10 21 l-25 7 30 18 30 17 -30 -8 c-16 -4 -54 -8 -83 -8 -58 0 -57 2 -67
-81 l-7 -52 -44 -6 c-24 -3 -65 -9 -91 -12 l-46 -7 6 114 c7 149 4 163 -49
200 -61 41 -65 74 -26 187 17 48 38 119 46 157 19 85 92 288 134 370 44 87
166 260 182 260 20 0 35 -77 49 -250 7 -77 17 -164 22 -193 6 -29 13 -135 15
-235 3 -100 6 -203 7 -229 2 -60 -24 -98 -80 -114 -60 -18 -95 -43 -91 -68 3
-23 21 -25 98 -9 l45 10 -34 9 -34 10 52 33 c69 45 85 77 77 155 -4 34 -9 147
-12 251 -3 105 -12 237 -20 295 -8 58 -19 146 -24 195 -19 176 -48 219 -111
159 -16 -15 -29 -32 -29 -36 0 -10 -33 -59 -70 -103 -14 -17 -42 -64 -62 -105
-52 -107 -155 -390 -168 -460 -6 -32 -20 -85 -30 -116 -11 -31 -20 -71 -20
-88 0 -43 32 -91 74 -111 34 -16 48 -46 28 -59 -4 -2 -39 11 -77 30 -69 33
-112 44 -100 24 4 -6 22 -17 42 -25 35 -15 35 -16 18 -34 -16 -19 -16 -20 22
-26 82 -14 94 -17 90 -28 -2 -7 -19 -13 -38 -15 -52 -5 -60 -22 -11 -22 49 0
60 -26 15 -36 -54 -12 -63 -16 -58 -24 3 -4 21 -3 40 3 40 12 54 4 39 -21 -12
-19 -129 -80 -156 -81 -13 -1 -18 7 -18 29 0 25 -5 31 -38 39 -34 10 -40 17
-66 76 -20 46 -42 77 -71 102 -25 20 -61 68 -86 112 -62 112 -85 139 -138 165
-64 33 -70 42 -80 123 -5 38 -18 88 -30 111 -11 23 -21 46 -21 51 0 6 -13 40
-30 76 -16 36 -30 69 -30 74 0 5 -7 11 -15 15 -24 9 -43 -33 -56 -126 -7 -49
-15 -88 -19 -88 -4 0 -17 24 -29 53 -50 119 -64 126 -81 41 -11 -53 -10 -115
5 -387 4 -68 2 -85 -19 -125 -32 -64 -40 -135 -27 -239 8 -55 9 -111 3 -149
-10 -73 6 -165 41 -236 l23 -47 -20 -24 c-12 -14 -33 -28 -48 -31 -22 -5 -27
-2 -30 16 -3 20 -9 15 -39 -32 -19 -30 -57 -95 -84 -145 -26 -49 -60 -113 -76
-141 -15 -29 -34 -63 -43 -75 -28 -43 -63 -153 -81 -249 -23 -128 -35 -142
-162 -181 -91 -28 -160 -64 -174 -91 -7 -12 -12 -47 -11 -78 0 -35 -9 -81 -25
-127 -27 -76 -40 -86 -83 -63 -11 6 -27 6 -42 1 -22 -9 -21 -10 17 -25 22 -9
50 -21 63 -26 17 -8 22 -18 22 -49 0 -38 -1 -39 -48 -50 -115 -29 -210 -77
-190 -97 3 -2 53 14 112 37 66 27 110 39 116 33 16 -16 -18 -113 -46 -130 -32
-22 -30 -32 8 -36 29 -3 32 -7 49 -68 25 -90 25 -97 -13 -105 -61 -13 -88 -33
-87 -63 3 -41 -48 -119 -127 -197 -39 -39 -83 -89 -96 -110 -36 -56 -206 -215
-230 -215 -5 0 -8 -9 -5 -19 3 -13 -9 -32 -39 -62 -32 -31 -44 -51 -44 -72 0
-18 -11 -42 -30 -64 -16 -18 -30 -45 -30 -59 0 -14 -11 -42 -25 -62 -14 -20
-25 -44 -25 -54 0 -9 -11 -30 -25 -46 -50 -60 -85 -141 -85 -197 0 -30 -5 -57
-10 -60 -21 -13 -44 -82 -45 -135 0 -30 -4 -73 -9 -94 -6 -25 -5 -37 1 -33 5
3 15 32 22 64 7 32 16 72 22 89 5 17 9 36 9 43 0 7 16 32 35 55 26 32 32 45
23 54 -15 15 -11 19 53 44 88 33 110 34 144 0 17 -16 38 -41 48 -56 24 -34 60
-35 75 -1 7 16 12 81 12 166 0 151 -13 209 -47 209 -18 0 -67 -23 -130 -61
l-31 -20 11 38 c6 21 24 53 41 71 26 28 27 32 11 32 -15 0 -5 14 38 58 54 54
70 82 47 82 -15 0 106 146 147 178 20 15 68 54 107 88 39 34 103 77 141 97 78
40 235 82 235 63 0 -20 94 -48 133 -41 27 5 46 1 83 -19 27 -14 54 -26 61 -26
7 0 47 -28 90 -63 81 -66 192 -137 213 -137 26 0 0 26 -71 69 -41 25 -102 68
-135 95 -65 53 -152 94 -226 106 -26 5 -63 16 -82 25 -64 31 -196 16 -294 -34
-34 -17 -68 -31 -76 -31 -23 0 -9 22 29 47 19 13 53 49 76 80 23 32 47 63 53
68 7 6 22 27 35 48 15 25 33 40 52 44 27 5 28 8 24 52 -2 25 -13 70 -24 99
-23 57 -26 117 -11 173 6 20 12 74 14 120 4 90 21 162 42 180 9 7 11 25 7 54
-8 59 4 113 27 125 43 23 150 -63 150 -121 0 -22 5 -29 20 -29 46 0 11 94 -54
141 -25 19 -44 39 -42 44 4 15 37 19 46 5 5 -8 14 -8 34 2 24 10 29 10 37 -5
7 -12 23 -17 54 -17 46 0 54 -7 33 -28 -8 -8 -5 -14 15 -21 15 -6 27 -17 27
-25 0 -13 29 -31 37 -22 2 2 0 12 -5 23 -5 10 -17 34 -26 53 -10 20 -32 44
-51 55 -19 10 -35 22 -35 27 0 16 49 58 68 58 15 0 21 12 30 64 7 35 12 69 12
75 0 22 -20 0 -21 -22 0 -12 -3 -16 -6 -9 -3 7 1 43 7 80 10 49 39 120 113
267 58 115 102 193 105 183 6 -28 16 -21 34 22 15 35 20 40 41 35 20 -6 30 1
61 44 38 54 57 61 95 35 22 -16 24 -15 94 55 40 40 83 74 97 77 14 3 63 24
110 48 47 24 103 49 125 56 22 7 69 25 105 40 89 39 202 67 350 89 143 21 285
17 481 -14 110 -17 116 -20 133 -48 16 -29 16 -31 0 -40 -28 -16 4 -27 83 -27
39 0 75 -4 78 -10 3 -5 10 -10 14 -10 10 0 28 98 36 198 6 80 0 97 -75 213
-22 34 -40 67 -40 73 0 6 20 54 44 106 60 132 84 191 113 290 13 47 52 141 84
210 58 120 287 526 318 563 47 55 72 -35 111 -398 5 -44 13 -111 19 -150 22
-153 31 -383 23 -593 -10 -238 -16 -259 -83 -275 -19 -5 -59 -15 -89 -24 -125
-36 -133 -44 -144 -132 -4 -29 -18 -83 -32 -119 -14 -37 -23 -76 -22 -87 3
-19 4 -19 26 3 29 29 48 24 140 -36 35 -22 93 -51 130 -63 74 -24 144 -61 150
-77 2 -6 -7 -12 -20 -14 -37 -5 -25 -20 47 -59 37 -21 82 -51 99 -69 l31 -32
-41 7 c-63 10 -60 -8 6 -38 43 -20 75 -46 121 -97 70 -79 101 -95 42 -22 -21
26 -50 70 -63 97 -14 28 -53 78 -88 112 -35 34 -62 69 -60 77 5 27 -136 136
-177 136 -39 0 -215 90 -215 110 0 4 20 5 45 2 58 -6 60 13 3 28 -115 29 -114
48 2 29 117 -19 123 0 9 30 -58 15 -87 27 -81 33 16 16 121 -1 197 -32 79 -32
110 -25 61 14 -38 31 -88 45 -186 53 -44 3 -80 9 -80 13 0 11 66 20 149 20
112 0 75 19 -44 22 l-100 3 68 33 c38 18 83 35 100 39 47 9 80 31 101 66 36
62 39 627 5 837 -6 36 -15 117 -19 181 -16 218 -65 412 -105 416 -11 1 -27 -1
-35 -4z m-2017 -758 c20 -49 39 -117 43 -150 6 -53 11 -65 49 -100 23 -22 57
-49 75 -60 36 -21 50 -40 115 -155 22 -39 56 -83 76 -100 24 -18 46 -51 64
-94 21 -49 34 -67 56 -76 34 -14 37 -39 10 -64 -11 -10 -68 -35 -128 -57 -59
-21 -126 -48 -148 -58 -22 -11 -80 -38 -128 -60 -66 -30 -103 -56 -147 -100
-53 -52 -61 -57 -81 -47 -12 6 -38 40 -58 76 l-36 65 -3 148 c-4 140 -3 150
17 168 29 28 30 113 1 131 -27 17 -25 29 11 93 25 44 28 58 19 75 -6 11 -8 35
-4 55 3 19 -1 72 -11 122 -13 66 -15 105 -8 156 4 37 12 68 17 68 5 0 22 -30
39 -68 29 -66 30 -70 24 -191 -4 -93 -3 -122 6 -119 8 2 16 55 24 146 6 79 14
155 18 170 4 14 9 48 11 74 7 96 25 85 77 -48z m-237 -595 c-1 -22 -5 -40 -11
-41 -13 0 -18 27 -11 57 10 38 22 28 22 -16z m1289 -50 c-3 -5 -17 -10 -31
-10 -14 0 -22 4 -19 10 3 6 17 10 31 10 14 0 22 -4 19 -10z m422 -48 c48 -41
69 -69 60 -79 -5 -4 -137 123 -137 132 0 9 19 -4 77 -53z m-747 -62 c0 -5 -7
-10 -15 -10 -8 0 -15 5 -15 10 0 6 7 10 15 10 8 0 15 -4 15 -10z m-2277 -3123
c4 -62 10 -134 13 -160 9 -60 -6 -61 -40 -3 -50 86 -65 91 -161 50 -88 -37
-95 -39 -95 -20 0 52 83 144 195 215 79 50 81 48 88 -82z"/>
<path d="M1810 4483 c-18 -23 -21 -36 -16 -72 8 -58 20 -71 67 -71 33 0 42 5
59 32 51 85 -50 187 -110 111z m90 -22 c16 -30 12 -76 -8 -95 -18 -15 -21 -15
-45 5 -29 22 -37 75 -15 97 18 18 56 14 68 -7z"/>
<path d="M1847 4443 c-12 -12 -7 -44 8 -49 22 -9 33 3 27 31 -4 24 -21 33 -35
18z"/>
<path d="M3375 4050 c-24 -6 -17 -8 33 -9 35 0 62 3 62 9 0 11 -50 11 -95 0z"/>
<path d="M4413 3443 c-16 -6 -17 -33 -3 -33 6 0 33 -21 61 -47 47 -44 49 -47
34 -69 -14 -22 -13 -24 12 -36 15 -7 47 -40 70 -73 36 -50 43 -66 39 -94 -4
-29 1 -42 28 -76 21 -25 44 -73 61 -125 15 -47 42 -125 60 -175 19 -49 37
-101 41 -115 4 -14 20 -53 35 -88 16 -34 41 -116 56 -182 19 -81 32 -120 42
-120 9 0 12 8 8 23 -30 138 -51 217 -71 269 -14 35 -45 115 -69 178 -25 63
-57 156 -72 205 -15 50 -38 104 -51 122 -17 22 -23 40 -19 55 4 17 -5 41 -33
83 -21 33 -56 92 -77 130 -59 107 -124 178 -152 168z"/>
<path d="M1964 3280 c-86 -20 -131 -79 -154 -200 -6 -36 -17 -75 -22 -87 -8
-15 -8 -26 -1 -35 6 -7 13 -34 15 -60 7 -60 43 -109 101 -137 51 -25 94 -26
161 -6 66 20 123 55 171 104 21 23 46 41 55 41 28 0 30 12 6 31 -18 14 -24 32
-29 78 -8 75 -51 183 -87 219 -28 28 -119 63 -161 61 -13 -1 -38 -4 -55 -9z
m143 -50 c65 -29 119 -135 130 -254 6 -74 -5 -92 -97 -153 -75 -51 -135 -62
-214 -39 -80 24 -91 45 -91 171 1 170 35 250 120 280 55 19 102 18 152 -5z"/>
<path d="M1884 3065 c-19 -30 -22 -118 -4 -140 16 -19 54 -19 69 -1 16 20 17
132 1 151 -19 22 -47 18 -66 -10z"/>
<path d="M1411 3187 c-16 -42 -24 -97 -14 -97 6 0 15 25 22 56 13 59 8 84 -8
41z"/>
<path d="M1435 3121 c-6 -11 9 -23 19 -14 9 9 7 23 -3 23 -6 0 -12 -4 -16 -9z"/>
<path d="M1475 3100 c3 -5 10 -10 16 -10 5 0 9 5 9 10 0 6 -7 10 -16 10 -8 0
-12 -4 -9 -10z"/>
<path d="M1520 3080 c0 -5 7 -10 16 -10 8 0 12 5 9 10 -3 6 -10 10 -16 10 -5
0 -9 -4 -9 -10z"/>
<path d="M1052 2828 c-16 -16 -15 -45 1 -51 21 -8 68 4 74 19 13 34 -48 59
-75 32z"/>
<path d="M1927 2477 c-3 -8 3 -23 13 -32 20 -18 26 -18 275 -30 196 -9 502
-41 615 -65 112 -23 153 -25 148 -7 -5 14 -113 40 -238 57 -47 6 -132 20 -190
30 -58 11 -184 26 -280 34 -346 30 -337 29 -343 13z m116 -14 c-13 -2 -35 -2
-50 0 -16 2 -5 4 22 4 28 0 40 -2 28 -4z m54 1 c-3 -3 -12 -4 -19 -1 -8 3 -5
6 6 6 11 1 17 -2 13 -5z"/>
<path d="M1698 2393 c-35 -9 -17 -19 55 -32 39 -7 86 -19 102 -26 17 -8 21
-13 10 -11 -11 3 -56 8 -100 11 -73 6 -78 5 -61 -9 11 -9 31 -16 45 -16 14 0
86 -13 159 -28 113 -24 132 -26 130 -13 -2 11 -26 20 -78 30 -41 8 -69 16 -61
19 15 5 136 -14 189 -30 31 -9 32 -11 18 -27 -15 -17 -11 -19 71 -41 49 -12
190 -53 315 -90 372 -111 488 -131 488 -82 0 27 -47 49 -175 82 -64 17 -154
43 -199 59 -44 16 -126 38 -181 50 -156 34 -470 106 -619 142 -44 10 -82 18
-85 18 -3 -1 -14 -3 -23 -6z m653 -172 c35 -11 80 -22 99 -26 19 -3 91 -24
160 -45 69 -21 159 -46 200 -55 41 -10 86 -23 100 -31 l25 -13 -31 -1 c-17 0
-57 9 -90 20 -32 12 -93 28 -133 36 -110 23 -436 132 -400 134 4 0 35 -9 70
-19z"/>
<path d="M8973 2363 c-27 -5 -27 -1 -4 -88 l19 -70 38 2 c20 2 39 5 42 7 5 6
-13 91 -27 129 -10 27 -20 29 -68 20z"/>
<path d="M8808 2353 c-21 -5 -21 -2 -5 -49 8 -22 17 -54 20 -71 l7 -33 -335 0
-335 0 0 -60 0 -60 331 0 331 0 -7 -42 c-41 -240 -156 -410 -337 -497 -46 -21
-116 -47 -155 -57 -40 -9 -73 -18 -73 -21 0 -11 63 -113 70 -113 5 0 44 11 87
25 124 39 217 97 310 190 69 70 89 98 131 186 57 118 89 234 98 362 7 81 6 87
-12 87 -15 0 -19 8 -21 38 -1 20 -8 55 -16 77 -12 34 -19 40 -43 42 -16 0 -37
-1 -46 -4z"/>
<path d="M6048 2343 c-23 -6 -23 -9 5 -99 l22 -75 35 6 c59 11 59 12 19 120
-21 56 -30 62 -81 48z"/>
<path d="M7973 2343 c-13 -2 -23 -7 -23 -11 1 -23 50 -157 59 -160 6 -2 26 2
45 8 l35 11 -27 77 c-28 80 -35 86 -89 75z"/>
<path d="M10145 2337 c-2 -7 -11 -41 -21 -77 -25 -96 -95 -236 -153 -308 -28
-34 -51 -66 -51 -71 0 -5 10 -30 21 -57 l22 -48 48 53 49 52 0 -295 0 -296 55
0 55 0 3 403 3 402 42 115 c46 127 47 121 -31 133 -25 4 -39 2 -42 -6z"/>
<path d="M10376 2288 c-23 -83 -95 -230 -146 -297 l-42 -54 30 -41 c17 -22 35
-41 41 -41 13 0 97 114 131 178 18 35 31 47 47 47 l23 0 0 -395 0 -395 55 0
55 0 0 125 0 125 160 0 160 0 0 55 0 55 -160 0 -160 0 0 80 0 80 160 0 160 0
0 55 0 55 -160 0 -160 0 0 80 0 80 175 0 176 0 -3 58 -3 57 -222 3 c-123 1
-223 3 -223 5 0 1 9 31 20 66 11 35 19 65 18 67 -2 1 -28 5 -59 9 l-55 7 -18
-64z"/>
<path d="M5915 2333 c-35 -9 -37 -19 -14 -104 12 -46 23 -85 24 -86 0 -1 20 3
43 9 49 12 50 16 19 113 -23 70 -31 78 -72 68z"/>
<path d="M7832 2329 c-25 -8 -32 -14 -28 -26 4 -9 14 -46 23 -82 9 -36 19 -69
22 -73 12 -14 81 12 81 30 0 33 -43 162 -54 161 -6 0 -26 -5 -44 -10z"/>
<path d="M11114 2307 c-2 -7 -3 -98 -2 -202 l3 -190 358 -3 357 -2 0 205 0
205 -355 0 c-280 0 -357 -3 -361 -13z m616 -192 l0 -95 -255 0 -255 0 0 95 0
95 255 0 255 0 0 -95z"/>
<path d="M4681 2289 c-28 -73 -64 -144 -99 -196 -46 -68 -151 -169 -205 -198
-20 -11 -37 -22 -37 -25 1 -3 18 -25 39 -49 l39 -44 33 23 c75 52 129 103 185
175 l59 75 183 0 182 0 -6 -27 c-19 -80 -70 -199 -107 -247 -14 -19 -17 -17
-73 29 -32 26 -87 62 -122 79 l-62 30 -41 -40 -41 -41 74 -46 c40 -25 94 -64
121 -86 l47 -39 -51 -45 c-89 -78 -290 -177 -359 -177 -32 0 -32 -17 1 -69 17
-28 32 -51 33 -51 1 0 40 13 87 29 258 87 433 238 543 472 42 88 91 244 98
314 l3 30 -217 3 c-120 1 -218 4 -218 6 0 3 9 25 20 51 11 26 20 50 20 55 0 4
-17 11 -37 15 -21 3 -48 9 -60 12 -17 4 -25 -1 -32 -18z"/>
<path d="M6727 2303 c-4 -3 -7 -46 -7 -95 l0 -88 -255 0 -255 0 0 -60 0 -60
221 0 c254 0 238 11 156 -108 -60 -88 -190 -222 -294 -306 -40 -32 -73 -63
-73 -68 0 -5 14 -29 31 -54 l30 -44 47 32 c119 85 355 340 377 408 3 11 11 20
17 20 7 0 9 -84 6 -270 l-4 -270 58 0 58 0 2 328 3 327 118 3 117 3 0 59 0 60
-120 0 -120 0 0 95 0 95 -53 0 c-30 0 -57 -3 -60 -7z"/>
<path d="M9708 1988 c-3 -284 -4 -295 -27 -346 -32 -70 -96 -125 -174 -151
-76 -24 -166 -41 -224 -41 -24 0 -43 -4 -43 -8 0 -13 32 -106 39 -114 9 -10
198 21 265 43 111 38 190 106 237 204 43 90 49 143 49 436 l0 269 -59 0 -60 0
-3 -292z"/>
<path d="M5360 2265 c0 -1 -11 -27 -24 -58 l-25 -55 77 -27 c42 -15 108 -43
146 -62 37 -19 69 -33 71 -31 8 9 45 102 45 113 0 6 -12 17 -27 24 -86 40
-263 104 -263 96z"/>
<path d="M7261 2214 c-13 -31 -20 -59 -15 -63 5 -4 38 -18 74 -31 36 -12 98
-38 138 -56 39 -18 72 -31 72 -30 0 2 11 29 25 60 l25 56 -48 24 c-40 20 -233
96 -245 96 -2 0 -14 -25 -26 -56z"/>
<path d="M9182 1958 l3 -303 58 -3 57 -3 0 306 0 305 -60 0 -60 0 2 -302z"/>
<path d="M3470 2190 l0 -60 270 0 c195 0 270 -3 270 -11 0 -24 -89 -199 -139
-273 -101 -149 -249 -284 -393 -358 l-67 -34 34 -52 c39 -58 37 -58 127 -5 84
49 196 141 264 217 32 36 63 66 68 66 13 0 169 -155 249 -247 39 -46 74 -83
77 -83 4 0 26 23 50 51 l43 51 -98 98 c-53 53 -132 128 -174 166 l-78 68 45
75 c25 42 58 104 73 138 30 67 79 215 79 239 0 12 -51 14 -350 14 l-350 0 0
-60z"/>
<path d="M1022 2203 c-19 -8 -4 -23 24 -23 16 0 24 5 22 13 -5 13 -26 18 -46
10z"/>
<path d="M1897 2093 c-13 -12 -7 -40 11 -55 9 -8 96 -47 192 -87 265 -109 319
-132 389 -163 35 -17 80 -32 100 -36 34 -5 35 -4 21 13 -50 60 -219 158 -415
240 -197 83 -279 107 -298 88z m119 -47 c163 -57 508 -226 460 -226 -3 0 -43
18 -88 40 -46 22 -150 66 -231 100 -162 66 -251 109 -226 110 8 0 47 -11 85
-24z"/>
<path d="M5995 2088 c-69 -197 -101 -265 -169 -355 -46 -60 -104 -110 -176
-150 -67 -37 -159 -63 -323 -88 -34 -5 -38 -9 -34 -28 3 -12 9 -39 13 -60 3
-21 13 -41 20 -44 21 -8 137 16 239 49 211 68 337 179 447 394 37 72 98 221
98 239 0 5 -96 55 -105 55 -3 0 -8 -6 -10 -12z"/>
<path d="M7899 2033 c-55 -168 -142 -314 -230 -385 -98 -80 -184 -114 -359
-144 -52 -9 -96 -17 -97 -18 -1 -1 1 -18 6 -37 5 -19 12 -46 15 -61 8 -35 19
-35 160 -3 71 16 143 41 205 71 82 39 109 59 181 133 92 93 147 180 205 322
55 137 55 134 -4 163 -28 14 -52 26 -55 26 -2 0 -14 -30 -27 -67z"/>
<path d="M5257 1968 c-9 -24 -17 -49 -19 -56 -2 -8 25 -24 69 -41 39 -16 104
-45 144 -65 39 -20 73 -35 74 -34 6 10 45 121 43 124 -19 19 -254 114 -282
114 -7 0 -20 -19 -29 -42z"/>
<path d="M7175 1958 c-12 -29 -20 -56 -17 -59 4 -4 25 -12 47 -19 22 -7 86
-34 142 -60 l101 -48 21 55 c12 30 21 59 21 65 0 15 -244 118 -282 118 -5 0
-20 -24 -33 -52z"/>
<path d="M11010 1560 l0 -260 50 0 c47 0 50 2 50 25 l0 25 105 0 105 0 0 -25
c0 -23 3 -25 50 -25 l50 0 0 260 0 260 -205 0 -205 0 0 -260z m310 25 l0 -136
-102 3 -103 3 -3 133 -3 132 106 0 105 0 0 -135z"/>
<path d="M11500 1560 l0 -260 50 0 c47 0 50 2 50 25 l0 25 115 0 115 0 0 -25
c0 -23 3 -25 50 -25 l50 0 0 260 0 260 -215 0 -215 0 0 -260z m328 28 l-3
-133 -110 0 -110 0 -3 133 -3 132 116 0 116 0 -3 -132z"/>
<path d="M1570 1581 c0 -12 116 -103 159 -125 17 -10 40 -29 49 -45 18 -30 72
-95 139 -170 63 -71 110 -155 118 -212 4 -28 22 -78 40 -113 18 -35 36 -81 40
-104 4 -24 20 -56 40 -79 32 -38 34 -44 39 -139 3 -54 6 -118 6 -141 1 -23 7
-46 15 -53 9 -7 11 -24 8 -50 -6 -44 3 -53 16 -16 6 15 4 69 -5 147 -8 68 -12
146 -8 173 6 46 5 50 -35 90 -32 33 -43 53 -51 96 -6 30 -19 67 -30 83 -12 15
-29 61 -39 102 -22 88 -55 142 -171 285 -47 58 -91 117 -97 132 -8 17 -25 30
-50 38 -21 7 -47 23 -58 36 -11 13 -42 35 -68 49 -54 28 -57 29 -57 16z"/>
<path d="M5522 1133 c1186 -2 3130 -2 4320 0 1190 1 219 2 -2157 2 -2376 0
-3349 -1 -2163 -2z"/>
<path d="M889 925 c-19 -14 -48 -32 -66 -40 -39 -18 -196 -172 -191 -187 9
-27 37 -32 112 -19 47 7 82 9 92 3 37 -21 114 -107 141 -158 28 -55 63 -78 84
-57 6 6 10 66 11 134 1 191 -34 293 -114 335 -34 18 -29 18 -69 -11z m90 -45
c39 -43 64 -129 69 -237 8 -159 -11 -181 -68 -80 -60 106 -152 177 -205 157
-32 -12 -75 -13 -75 -1 0 21 216 191 243 191 4 0 21 -14 36 -30z"/>
<path d="M4594 905 c-80 -40 -121 -115 -111 -202 8 -78 48 -120 170 -183 58
-31 118 -67 132 -80 48 -45 52 -129 10 -194 -65 -99 -228 -60 -251 60 -7 38
-5 38 -58 23 -36 -10 -38 -13 -32 -41 18 -88 94 -169 177 -187 57 -12 127 -1
176 29 65 39 112 127 113 210 1 118 -47 179 -194 250 -116 55 -148 83 -149
133 -2 64 57 117 130 117 32 0 91 -33 99 -55 8 -20 20 -19 55 6 36 25 36 29 3
69 -62 73 -175 92 -270 45z"/>
<path d="M7271 915 c-24 -7 -67 -30 -96 -50 -210 -144 -244 -458 -68 -646 165
-177 446 -160 590 34 122 167 109 406 -33 557 -28 30 -73 63 -113 83 -56 27
-77 32 -151 34 -52 2 -102 -3 -129 -12z m209 -91 c73 -22 159 -107 186 -184
46 -134 10 -286 -88 -375 -146 -131 -371 -82 -457 100 -29 60 -39 173 -22 242
43 172 210 268 381 217z"/>
<path d="M8378 911 c-104 -42 -172 -105 -221 -204 -82 -169 -46 -379 86 -505
65 -61 115 -87 193 -101 146 -27 297 48 364 178 27 53 50 145 50 198 l0 43
-150 0 -150 0 0 -45 0 -45 95 0 95 0 0 -27 c-1 -68 -78 -167 -156 -199 -44
-18 -135 -18 -181 1 -61 26 -117 80 -153 147 -28 53 -35 76 -38 144 -8 148 51
255 173 315 59 29 71 31 132 27 80 -6 138 -32 192 -88 l38 -39 33 34 34 35
-46 44 c-74 71 -145 100 -252 103 -71 3 -101 -1 -138 -16z"/>
<path d="M4957 914 c-4 -4 -7 -25 -7 -46 l0 -38 90 0 90 0 0 -360 0 -360 50 0
50 0 0 360 0 360 91 0 90 0 -3 43 -3 42 -221 3 c-121 1 -223 -1 -227 -4z"/>
<path d="M5472 608 l3 -313 27 -51 c72 -138 223 -188 362 -120 61 30 93 65
128 142 22 47 23 61 26 352 l4 303 -49 -3 -48 -3 -5 -300 c-5 -330 -6 -335
-70 -389 -39 -32 -67 -40 -131 -34 -64 6 -97 31 -129 94 -25 48 -25 52 -28
342 l-3 292 -45 0 -45 0 3 -312z"/>
<path d="M6140 516 l0 -406 98 0 c224 0 357 61 429 197 102 192 48 442 -117
541 -82 49 -141 63 -282 69 l-128 6 0 -407z m235 298 c56 -6 134 -45 172 -85
52 -55 74 -117 74 -209 0 -146 -39 -216 -154 -276 -49 -25 -192 -52 -221 -41
-14 6 -16 41 -16 310 0 167 3 307 6 310 6 6 30 4 139 -9z"/>
<path d="M6810 515 l0 -405 45 0 45 0 0 405 0 405 -45 0 -45 0 0 -405z"/>
<path d="M8935 907 c-3 -6 -4 -188 -3 -402 l3 -390 48 -3 47 -3 0 195 0 196
180 0 180 0 0 -195 0 -195 45 0 45 0 0 405 0 405 -45 0 -45 0 0 -165 0 -165
-180 0 -180 0 0 165 0 165 -45 0 c-27 0 -48 -5 -50 -13z"/>
<path d="M9615 907 c-3 -6 -4 -188 -3 -402 l3 -390 48 -3 47 -3 0 405 0 406
-45 0 c-27 0 -48 -5 -50 -13z"/>
<path d="M9840 516 l0 -406 113 0 c145 0 207 17 263 74 42 42 64 93 64 152 0
76 -57 168 -120 194 l-27 11 28 30 c69 74 64 209 -10 279 -47 45 -93 60 -213
67 l-98 6 0 -407z m224 293 c34 -16 56 -61 56 -114 0 -88 -48 -135 -140 -135
l-40 0 0 136 0 137 50 -7 c28 -4 61 -12 74 -17z m55 -353 c44 -23 63 -58 63
-116 0 -91 -48 -130 -169 -138 l-73 -5 0 143 0 143 74 -6 c40 -3 88 -13 105
-21z"/>
<path d="M10385 907 c-3 -6 -4 -188 -3 -402 l3 -390 163 -3 162 -2 0 45 0 45
-115 0 -115 0 0 360 0 360 -45 0 c-27 0 -48 -5 -50 -13z"/>
<path d="M10770 515 l0 -405 45 0 45 0 0 405 0 405 -45 0 -45 0 0 -405z"/>
<path d="M1579 360 c-19 -10 -50 -36 -68 -57 -17 -21 -52 -62 -76 -91 -71 -83
-63 -94 69 -103 l89 -5 46 -52 c44 -50 48 -52 95 -52 l49 0 -7 42 c-3 24 -9
79 -13 123 -9 108 -30 155 -93 198 -31 21 -46 21 -91 -3z m98 -35 c27 -19 50
-90 58 -185 3 -41 9 -85 12 -98 9 -40 -28 -25 -88 34 -50 49 -64 58 -111 65
-29 5 -65 6 -81 3 -56 -12 -42 21 43 103 103 98 124 108 167 78z"/>
</g>
</svg>
